<svg width="120mm" height="120mm" viewBox="0 0 120 120" xmlns:xlink="http://www.w3.org/1999/xlink" xmlns="http://www.w3.org/2000/svg"><defs><linearGradient xlink:href="#a" id="s" x1="-546.104" y1="37.937" x2="-530.741" y2="-9.233" gradientUnits="userSpaceOnUse" gradientTransform="translate(952.574 124.057)scale(.9879)"/><linearGradient id="a"><stop style="stop-color:#2375de;stop-opacity:1" offset="0"/><stop style="stop-color:#06b1fe;stop-opacity:1" offset="1"/></linearGradient><linearGradient xlink:href="#b" id="o" x1="-527.368" y1="2.479" x2="-481.061" y2="-30.59" gradientUnits="userSpaceOnUse" gradientTransform="translate(952.574 124.057)scale(.9879)"/><linearGradient id="b"><stop style="stop-color:#2174d3;stop-opacity:1" offset="0"/><stop style="stop-color:#06befe;stop-opacity:1" offset="1"/></linearGradient><linearGradient xlink:href="#c" id="r" x1="-527.369" y1="20.032" x2="-479.945" y2="-13.773" gradientUnits="userSpaceOnUse" gradientTransform="translate(952.574 124.057)scale(.9879)"/><linearGradient id="c"><stop style="stop-color:#2372d6;stop-opacity:1" offset="0"/><stop style="stop-color:#1993f6;stop-opacity:1" offset="1"/></linearGradient><linearGradient xlink:href="#d" id="k" x1="-479.292" y1="-21.383" x2="-439.677" y2="11.913" gradientUnits="userSpaceOnUse" gradientTransform="translate(952.574 124.057)scale(.9879)"/><linearGradient id="d"><stop style="stop-color:#4a85fa;stop-opacity:1" offset="0"/><stop style="stop-color:#8532de;stop-opacity:1" offset="1"/></linearGradient><linearGradient xlink:href="#e" id="l" x1="-477.938" y1="-4.612" x2="-439.677" y2="27.903" gradientUnits="userSpaceOnUse" gradientTransform="translate(952.574 124.057)scale(.9879)"/><linearGradient id="e"><stop style="stop-color:#6d4adc;stop-opacity:1" offset="0"/><stop style="stop-color:#a338f0;stop-opacity:1" offset="1"/></linearGradient><linearGradient xlink:href="#f" id="t" x1="-455.041" y1="22.928" x2="-439.677" y2="69.951" gradientUnits="userSpaceOnUse" gradientTransform="translate(952.574 124.057)scale(.9879)"/><linearGradient id="f"><stop style="stop-color:#622d9c;stop-opacity:1" offset="0"/><stop style="stop-color:#9d36e8;stop-opacity:1" offset="1"/></linearGradient><linearGradient xlink:href="#g" id="q" x1="-458.413" y1="40.685" x2="-505.837" y2="74.491" gradientUnits="userSpaceOnUse" gradientTransform="translate(952.574 124.057)scale(.9879)"/><linearGradient id="g"><stop style="stop-color:#6129a0;stop-opacity:1" offset="0"/><stop style="stop-color:#8137e7;stop-opacity:1" offset="1"/></linearGradient><linearGradient xlink:href="#h" id="p" x1="-458.413" y1="58.239" x2="-504.72" y2="91.309" gradientUnits="userSpaceOnUse" gradientTransform="translate(952.574 124.057)scale(.9879)"/><linearGradient id="h"><stop style="stop-color:#6627a7;stop-opacity:1" offset="0"/><stop style="stop-color:#9e39ee;stop-opacity:1" offset="1"/></linearGradient><linearGradient xlink:href="#i" id="n" x1="-497.462" y1="82.531" x2="-546.104" y2="48.806" gradientUnits="userSpaceOnUse" gradientTransform="translate(952.574 124.057)scale(.9879)"/><linearGradient id="i"><stop style="stop-color:#7b35db;stop-opacity:1" offset="0"/><stop style="stop-color:#5096fd;stop-opacity:1" offset="1"/></linearGradient><linearGradient xlink:href="#j" id="m" x1="-497.462" y1="64.693" x2="-546.104" y2="32.815" gradientUnits="userSpaceOnUse" gradientTransform="translate(952.574 124.057)scale(.9879)"/><linearGradient id="j"><stop style="stop-color:#6a3cbe;stop-opacity:1" offset="0"/><stop style="stop-color:#63b9fd;stop-opacity:1" offset="1"/></linearGradient></defs><path style="fill:#5932a9;fill-opacity:1;stroke-width:.081556;stroke-linejoin:bevel;paint-order:markers fill stroke" d="m471.497 124.65-4.313 2.508-3.202 1.861-2.585 1.504a3.22 3.22 119.916 0 0-1.602 2.782v9.768a1.07 1.07 30.002 0 0 1.603.926l8.476-4.893a3.21 3.21 120.041 0 0 1.606-2.779zm-1.63 18.307-8.47 4.89a3.21 3.21 120.002 0 0-1.603 2.778l-.003 32.823 10.022-5.739a3.2 3.2 120.145 0 0 1.61-2.772l.046-31.054a1.067 1.067 30.042 0 0-1.601-.926z" transform="translate(-404.048 -93.521)scale(.99657)"/><path d="m479.058 102.944-8.899 5.138 48.055 27.744V125.55a3.21 3.21 60 0 0-1.604-2.778l-34.344-19.828a3.21 3.21 180 0 0-3.208 0" style="fill:url(#k);fill-opacity:1;stroke-width:.081556;stroke-linejoin:bevel;paint-order:markers fill stroke" transform="translate(-404.048 -93.521)scale(.99657)"/><path d="m480.396 119.513-8.899 5.138 46.717 27.15v-10.275a3.22 3.22 60.106 0 0-1.6-2.785L483.6 119.52a3.2 3.2.106 0 0-3.204-.006" style="fill:url(#l);fill-opacity:1;stroke-width:.081556;stroke-linejoin:bevel;paint-order:markers fill stroke" transform="translate(-404.048 -93.521)scale(.99657)"/><path d="m450.892 188.586 8.899-5.138-46.717-27.15v10.275a3.22 3.22 60.106 0 0 1.6 2.784l33.013 19.223a3.2 3.2.106 0 0 3.205.006" style="fill:url(#m);fill-opacity:1;stroke-width:.081556;stroke-linejoin:bevel;paint-order:markers fill stroke" transform="translate(-404.048 -93.521)scale(.99657)"/><path d="m452.229 205.155 8.899-5.138-48.055-27.744v10.276a3.21 3.21 60 0 0 1.604 2.778l34.344 19.828a3.21 3.21 180 0 0 3.208 0" style="fill:url(#n);fill-opacity:1;stroke-width:.081556;stroke-linejoin:bevel;paint-order:markers fill stroke" transform="translate(-404.048 -93.521)scale(.99657)"/><path d="m464.04 94.273-30.853 17.813a3.21 3.21 120 0 0-1.604 2.778v11.642l45.747-26.412-10.082-5.821a3.21 3.21 180 0 0-3.208 0" style="fill:url(#o);fill-opacity:1;stroke-width:.081556;stroke-linejoin:bevel;paint-order:markers fill stroke" transform="translate(-404.048 -93.521)scale(.99657)"/><path d="m467.248 213.826 30.853-17.813a3.21 3.21 120 0 0 1.604-2.778v-11.643l-45.747 26.413 10.082 5.82a3.21 3.21 180 0 0 3.208 0" style="fill:url(#p);fill-opacity:1;stroke-width:.081556;stroke-linejoin:bevel;paint-order:markers fill stroke" transform="translate(-404.048 -93.521)scale(.99657)"/><path d="m466.143 197.21 33.562-19.465v-13.494l-46.85 27.14 10.082 5.822a3.2 3.2 179.944 0 0 3.206-.003" style="fill:url(#q);fill-opacity:1;stroke-width:.081556;stroke-linejoin:bevel;paint-order:markers fill stroke" transform="translate(-404.048 -93.521)scale(.99657)"/><path d="m465.145 110.889-33.562 19.464v13.494l46.85-27.14-10.082-5.822a3.2 3.2 179.944 0 0-3.206.003z" style="fill:url(#r);fill-opacity:1;stroke-width:.081556;stroke-linejoin:bevel;paint-order:markers fill stroke" transform="translate(-404.048 -93.521)scale(.99657)"/><path d="m428.251 114.935-13.573 7.837a3.21 3.21 120 0 0-1.604 2.778v25.225a3.21 3.21 60 0 0 1.604 2.778l13.573 7.837z" style="fill:url(#s);fill-opacity:1;stroke-width:.081556;stroke-linejoin:bevel;paint-order:markers fill stroke" transform="translate(-404.048 -93.521)scale(.99657)"/><path d="m503.036 193.163 13.574-7.837a3.21 3.21 120 0 0 1.604-2.778v-25.225a3.21 3.21 60 0 0-1.604-2.778l-13.574-7.837z" style="fill:url(#t);fill-opacity:1;stroke-width:.081556;stroke-linejoin:bevel;paint-order:markers fill stroke" transform="translate(-404.048 -93.521)scale(.99657)"/></svg>
