<svg width="1000" height="1000" viewBox="0 0 264.583 264.583" xmlns="http://www.w3.org/2000/svg"><path style="fill:#d7f9fa" d="M142.644 34.8 27.55 100.946v132.291l115.094 66.146 115.094-66.146V100.946Zm0 16.883 100.406 57.704v115.409L142.644 282.5 42.238 224.796V109.387Z" transform="translate(-10.352 -34.8)"/><path style="fill:#1e7bbb" d="m127.996 215.124-50.572 29.198-50.571-29.198V156.73l50.571-29.197 50.572 29.197z" transform="matrix(1.98542 0 0 1.97635 -21.428 -235.165)"/><path style="fill:#3f93cd" d="m172.277 86.106-15.142 8.702 55.666 31.997v81.42l-70.835 40.71-70.835-40.71v-81.42l56.134-32.26-14.853-8.552-55.695 32.093v98.381l85.592 49.191 85.591-49.19v-98.382z" transform="translate(-10.352 -34.8)"/><path style="fill:#1e7bbb" d="m127.996 215.124-50.572 29.198-50.571-29.198V156.73l50.571-29.197 50.572 29.197z" transform="matrix(1.40069 0 0 1.39429 23.167 -126.52)"/><path style="fill:#d7f9fa" d="m126.822 111.894 15.822-8.698 14.458 8.6v111.24l-14.458 8.698-15.822-8.5zm15.822-42.998-15.636 8.603 15.435 8.87 14.997-8.619z" transform="translate(-10.352 -34.8)"/></svg>
